<?xml version="1.0" encoding="UTF-8" standalone="no"?>
<!-- Generator: Gravit.io -->
<svg xmlns="http://www.w3.org/2000/svg" xmlns:xlink="http://www.w3.org/1999/xlink" style="isolation:isolate" viewBox="0 0 80 90" width="80pt" height="90pt"><defs><clipPath id="_clipPath_s5olIWJRAFrGtfVtbKpbqmyRECr1V5we"><rect width="80" height="90"/></clipPath></defs><g clip-path="url(#_clipPath_s5olIWJRAFrGtfVtbKpbqmyRECr1V5we)"><path d=" M 10 50 C 5 58 8 71 15 78 C 22 85 34.419 86.878 45 81 C 54 76 55.354 64.876 57 55 C 58 49 63.875 41.875 65 36 C 66.125 30.125 66.625 24.375 63 22 C 59.375 19.625 55.625 20.375 52 22 C 48.375 23.625 42.375 28.875 37 32 C 31.625 35.125 18.455 36.472 10 50 Z " fill="rgb(255,255,255)" vector-effect="non-scaling-stroke" stroke-width="8" stroke="rgb(0,0,255)" stroke-linejoin="miter" stroke-linecap="square" stroke-miterlimit="3"/><line x1="63" y1="23" x2="72" y2="10" vector-effect="non-scaling-stroke" stroke-width="6" stroke="rgb(0,0,255)" stroke-linejoin="miter" stroke-linecap="square" stroke-miterlimit="3"/><circle vector-effect="non-scaling-stroke" cx="27.000000000000004" cy="55" r="3" fill="rgb(0,0,255)"/><circle vector-effect="non-scaling-stroke" cx="39" cy="64" r="3" fill="rgb(0,0,255)"/><path d=" M 22 61 Q 16 68 22 73 Q 28 78 34 70" fill="none" vector-effect="non-scaling-stroke" stroke-width="6" stroke="rgb(0,0,255)" stroke-linejoin="miter" stroke-linecap="square" stroke-miterlimit="3"/><path d=" M 23 48 L 34 46 L 35 56 L 47 55 L 46 66" fill="none" vector-effect="non-scaling-stroke" stroke-width="6" stroke="rgb(0,0,255)" stroke-linejoin="miter" stroke-linecap="square" stroke-miterlimit="3"/></g></svg>